<?xml version="1.0" encoding="UTF-8"?>
<svg id="Layer_1" data-name="Layer 1" xmlns="http://www.w3.org/2000/svg" xmlns:xlink="http://www.w3.org/1999/xlink" viewBox="0 0 1080 1080">
  <defs>
    <style>
      .cls-1 {
        fill: url(#linear-gradient);
      }
    </style>
    <linearGradient id="linear-gradient" x1="-215.62" y1="540" x2="843.35" y2="540" gradientUnits="userSpaceOnUse">
      <stop offset="0" stop-color="#0c48fc"/>
      <stop offset="1" stop-color="#008678"/>
    </linearGradient>
  </defs>
  <path class="cls-1" d="M464.74,754.53c24.38-25.67,55.42-36.73,91.59-32.35,12.06,1.46,33.83,14.07,41.76,10.53l224.6-224.66c161.72-197.73-113.84-428.3-281.37-236.25l-54.89-45.81c-239.48-135.83-401.08,252.65-149.75,331.27,134.43,42.05,200.99-67.15,284.67-146.23-13.09-45.42,13.79-97.61,64.49-98.59,109.8-2.12,87.28,173.35-26.04,137.05-64,58.19-116.72,138.54-204.89,161.37-227.66,58.93-394.35-207.82-241.36-382.88,84.8-97.04,226.1-107.39,327.77-29.92,227.62-171.64,505.36,114.77,327.69,337.74l-235.6,235.36c3.41,17.11,13.25,32.46,14.05,50.81,1.62,37.14-21.05,78.98-53.29,97.37-105.81,60.35-214.73-74.99-129.44-164.8ZM536.03,774.8c-61.58,6.07-62.48,93.38-9.41,103.22,87.6,16.24,82.47-110.42,9.41-103.22Z"/>
</svg>